<svg width="188" height="55" viewBox="0 0 188 55" fill="none" xmlns="http://www.w3.org/2000/svg">
  <path d="M186.013 47.8054C186.013 50.6851 183.632 53.0177 180.686 53.0177H6.37258C3.42866 53.0177 1.03906 50.6851 1.03906 47.8054V6.23868C1.03906 3.36032 3.42866 1.01953 6.37258 1.01953H180.685C183.632 1.01953 186.012 3.36032 186.012 6.23868L186.013 47.8054Z" fill="black"/>
  <path d="M180.124 1.0822C183.332 1.0822 185.942 3.62703 185.942 6.75443V47.2824C185.942 50.4099 183.332 52.9547 180.124 52.9547H6.92786C3.72026 52.9547 1.11019 50.4099 1.11019 47.2824V6.75443C1.11019 3.62703 3.72026 1.0822 6.92786 1.0822H180.124ZM180.124 -0.000232315H6.92786C3.11927 -0.000232315 0 3.04106 0 6.75443V47.2824C0 50.9958 3.11927 54.0371 6.92786 54.0371H180.124C183.933 54.0371 187.052 50.9958 187.052 47.2824V6.75443C187.052 3.04106 183.933 -0.000232315 180.124 -0.000232315Z" fill="#A6A6A6"/>
  <path d="M41.7431 26.7266C41.7029 22.3725 45.3996 20.2542 45.5687 20.1556C43.4751 17.1795 40.23 16.7729 39.0897 16.7405C36.3643 16.4608 33.7206 18.3305 32.3323 18.3305C30.9162 18.3305 28.7783 16.7675 26.4741 16.8134C23.5089 16.858 20.735 18.5318 19.2137 21.131C16.074 26.4307 18.4156 34.2188 21.4237 38.5026C22.9284 40.6006 24.6867 42.9432 26.9881 42.8607C29.2397 42.7702 30.0807 41.4612 32.7978 41.4612C35.49 41.4612 36.2798 42.8607 38.6269 42.8081C41.0434 42.7702 42.5647 40.7006 44.0168 38.5837C45.7557 36.179 46.454 33.8109 46.4817 33.6893C46.4249 33.6704 41.7888 31.9452 41.7431 26.7266Z" fill="white"/>
  <path d="M37.3092 13.9224C38.5202 12.4458 39.3488 10.437 39.1188 8.39844C37.3661 8.47409 35.1741 9.5805 33.9118 11.0247C32.7951 12.2972 31.7974 14.3831 32.0552 16.3446C34.0241 16.4878 36.0456 15.376 37.3092 13.9224Z" fill="white"/>
  <path d="M74.3286 42.5603H71.182L69.4583 37.2795H63.4671L61.8252 42.5603H58.7617L64.6975 24.582H68.3637L74.3286 42.5603ZM68.9388 35.0639L67.38 30.3694C67.2151 29.8899 66.9061 28.7605 66.4503 26.9826H66.3948C66.2133 27.7473 65.921 28.8767 65.5192 30.3694L63.9881 35.0639H68.9388Z" fill="white"/>
  <path d="M89.5951 35.9186C89.5951 38.1233 88.9841 39.866 87.762 41.1453C86.6674 42.2842 85.3081 42.8529 83.6856 42.8529C81.9343 42.8529 80.6762 42.2396 79.9099 41.013H79.8545V47.8419H76.9005V33.8638C76.9005 32.4778 76.8631 31.0552 76.791 29.5962H79.389L79.5538 31.651H79.6093C80.5944 30.1028 82.0894 29.3301 84.0958 29.3301C85.6642 29.3301 86.9736 29.9339 88.0211 31.143C89.0714 32.3535 89.5951 33.9449 89.5951 35.9186ZM86.5856 36.024C86.5856 34.7622 86.2947 33.722 85.71 32.9033C85.0712 32.0495 84.2135 31.6226 83.1383 31.6226C82.4095 31.6226 81.7472 31.8604 81.1556 32.3292C80.5625 32.802 80.1746 33.4194 79.9931 34.184C79.9016 34.5406 79.8559 34.8324 79.8559 35.0621V37.2236C79.8559 38.1665 80.1524 38.9622 80.7454 39.612C81.3385 40.2618 82.1088 40.5861 83.0566 40.5861C84.1692 40.5861 85.0352 40.1673 85.6545 39.3324C86.2753 38.4962 86.5856 37.3938 86.5856 36.024Z" fill="white"/>
  <path d="M104.887 35.9186C104.887 38.1233 104.276 39.866 103.052 41.1453C101.959 42.2842 100.6 42.8529 98.9772 42.8529C97.2258 42.8529 95.9677 42.2396 95.2029 41.013H95.1475V47.8419H92.1934V33.8638C92.1934 32.4778 92.156 31.0552 92.084 29.5962H94.6819L94.8468 31.651H94.9022C95.886 30.1028 97.381 29.3301 99.3887 29.3301C100.956 29.3301 102.265 29.9339 103.315 31.143C104.362 32.3535 104.887 33.9449 104.887 35.9186ZM101.877 36.024C101.877 34.7622 101.585 33.722 101 32.9033C100.361 32.0495 99.5065 31.6226 98.4299 31.6226C97.6997 31.6226 97.0388 31.8604 96.4458 32.3292C95.8527 32.802 95.4662 33.4194 95.2847 34.184C95.1946 34.5406 95.1475 34.8324 95.1475 35.0621V37.2236C95.1475 38.1665 95.444 38.9622 96.0343 39.612C96.6273 40.2605 97.3977 40.5861 98.3482 40.5861C99.4608 40.5861 100.327 40.1673 100.946 39.3324C101.567 38.4962 101.877 37.3938 101.877 36.024Z" fill="white"/>
  <path d="M121.984 37.5183C121.984 39.0476 121.44 40.2918 120.346 41.2523C119.145 42.302 117.473 42.8262 115.324 42.8262C113.34 42.8262 111.749 42.4533 110.545 41.7062L111.229 39.3056C112.526 40.0702 113.949 40.4539 115.5 40.4539C116.612 40.4539 117.478 40.208 118.1 39.719C118.72 39.23 119.029 38.5734 119.029 37.7547C119.029 37.0252 118.774 36.4106 118.263 35.9121C117.754 35.4136 116.905 34.9502 115.719 34.522C112.49 33.348 110.877 31.6283 110.877 29.3668C110.877 27.8889 111.443 26.6771 112.575 25.7341C113.703 24.7898 115.207 24.3184 117.089 24.3184C118.767 24.3184 120.161 24.6034 121.273 25.1721L120.535 27.5201C119.496 26.9689 118.321 26.6933 117.006 26.6933C115.967 26.6933 115.155 26.9432 114.573 27.4404C114.081 27.8848 113.834 28.4266 113.834 29.0682C113.834 29.7788 114.116 30.3665 114.681 30.8285C115.173 31.2554 116.066 31.7174 117.363 32.2159C118.95 32.8387 120.115 33.5669 120.865 34.4017C121.611 35.2339 121.984 36.2755 121.984 37.5183Z" fill="white"/>
  <path d="M131.752 31.7568H128.495V38.0508C128.495 39.6517 129.069 40.4514 130.219 40.4514C130.747 40.4514 131.185 40.4068 131.531 40.3177L131.613 42.5048C131.031 42.7169 130.265 42.8237 129.316 42.8237C128.149 42.8237 127.237 42.4765 126.579 41.7834C125.924 41.0891 125.594 39.9246 125.594 38.2886V31.7541H123.654V29.5926H125.594V27.219L128.495 26.3652V29.5926H131.752V31.7568Z" fill="white"/>
  <path d="M146.443 35.9719C146.443 37.9645 145.858 39.6005 144.692 40.8798C143.468 42.197 141.844 42.8535 139.82 42.8535C137.869 42.8535 136.316 42.2226 135.157 40.9609C133.999 39.6991 133.42 38.1063 133.42 36.1867C133.42 34.1778 134.016 32.5324 135.211 31.2531C136.404 29.9724 138.014 29.332 140.039 29.332C141.99 29.332 143.56 29.9629 144.744 31.226C145.878 32.4513 146.443 34.0333 146.443 35.9719ZM143.378 36.0651C143.378 34.8695 143.116 33.8442 142.585 32.989C141.966 31.9542 141.081 31.4381 139.933 31.4381C138.746 31.4381 137.844 31.9555 137.225 32.989C136.694 33.8455 136.432 34.8871 136.432 36.1191C136.432 37.3147 136.694 38.3401 137.225 39.1938C137.863 40.2287 138.756 40.7447 139.907 40.7447C141.035 40.7447 141.92 40.2179 142.559 39.1668C143.104 38.2955 143.378 37.2593 143.378 36.0651Z" fill="white"/>
  <path d="M156.043 32.1292C155.751 32.0765 155.439 32.0495 155.112 32.0495C154.073 32.0495 153.269 32.4318 152.704 33.1978C152.212 33.8733 151.965 34.7271 151.965 35.7578V42.5598H149.013L149.041 33.6787C149.041 32.1846 149.003 30.8242 148.93 29.5976H151.503L151.611 32.0779H151.693C152.004 31.2254 152.496 30.5392 153.17 30.0245C153.828 29.5611 154.539 29.3301 155.305 29.3301C155.578 29.3301 155.824 29.349 156.043 29.3828V32.1292Z" fill="white"/>
  <path d="M169.256 35.4655C169.256 35.9816 169.221 36.4166 169.148 36.7719H160.285C160.32 38.0526 160.748 39.032 161.571 39.7075C162.318 40.3113 163.284 40.614 164.47 40.614C165.782 40.614 166.979 40.41 168.056 40.0006L168.518 42C167.26 42.535 165.775 42.8011 164.061 42.8011C161.999 42.8011 160.381 42.2094 159.203 41.0273C158.028 39.8453 157.439 38.2579 157.439 36.2666C157.439 34.3118 157.987 32.684 159.083 31.3857C160.23 29.9997 161.78 29.3066 163.731 29.3066C165.648 29.3066 167.098 29.9997 168.083 31.3857C168.863 32.4867 169.256 33.8485 169.256 35.4655ZM166.439 34.7185C166.458 33.8647 166.266 33.1271 165.865 32.5043C165.354 31.7032 164.568 31.3033 163.511 31.3033C162.545 31.3033 161.76 31.6937 161.16 32.4773C160.668 33.1001 160.375 33.8471 160.285 34.7171H166.439V34.7185Z" fill="white"/>
  <path d="M67.9637 13.523C67.9637 15.1131 67.4745 16.31 66.4977 17.1138C65.5929 17.8554 64.3071 18.227 62.6417 18.227C61.8159 18.227 61.1092 18.1918 60.5176 18.1216V9.43373C61.2893 9.31214 62.1207 9.25 63.0185 9.25C64.605 9.25 65.8008 9.58638 66.6072 10.2591C67.5106 11.0197 67.9637 12.1072 67.9637 13.523ZM66.4326 13.5622C66.4326 12.5314 66.1527 11.7411 65.5929 11.1899C65.0332 10.6401 64.2157 10.3645 63.1391 10.3645C62.6818 10.3645 62.2925 10.3942 61.9697 10.4564V17.0611C62.1484 17.0881 62.4754 17.1003 62.9506 17.1003C64.0619 17.1003 64.9196 16.799 65.5237 16.1965C66.1278 15.594 66.4326 14.7159 66.4326 13.5622Z" fill="white"/>
  <path d="M76.0827 14.9115C76.0827 15.891 75.7959 16.6934 75.2223 17.323C74.621 17.9701 73.8243 18.2929 72.8294 18.2929C71.8706 18.2929 71.1071 17.9836 70.5377 17.3621C69.9696 16.7421 69.6855 15.9599 69.6855 15.0169C69.6855 14.0307 69.9779 13.2215 70.5654 12.5933C71.1529 11.9652 71.9426 11.6504 72.9375 11.6504C73.8963 11.6504 74.6667 11.9598 75.25 12.5798C75.8042 13.1823 76.0827 13.9605 76.0827 14.9115ZM74.5766 14.9575C74.5766 14.3698 74.4464 13.8659 74.1873 13.4458C73.8825 12.9378 73.4488 12.6839 72.8848 12.6839C72.3015 12.6839 71.8581 12.9378 71.5533 13.4458C71.2928 13.8659 71.164 14.3779 71.164 14.9831C71.164 15.5708 71.2942 16.0747 71.5533 16.4948C71.8678 17.0028 72.3057 17.2568 72.871 17.2568C73.4252 17.2568 73.8603 16.9987 74.1734 16.4813C74.4422 16.0531 74.5766 15.5451 74.5766 14.9575Z" fill="white"/>
  <path d="M86.9674 11.7793L84.9236 18.1476H83.5935L82.7469 15.3822C82.5321 14.6919 82.3576 14.0056 82.2218 13.3248H82.1955C82.0694 14.0245 81.8948 14.7095 81.6703 15.3822L80.7711 18.1476H79.4257L77.5039 11.7793H78.9962L79.7347 14.8067C79.9134 15.5227 80.0603 16.205 80.1781 16.8507H80.2044C80.3125 16.3184 80.4912 15.6403 80.7434 14.8202L81.6703 11.7806H82.8536L83.7418 14.7554C83.9565 15.4809 84.1311 16.1793 84.2655 16.8521H84.3057C84.4041 16.1969 84.5523 15.4984 84.7491 14.7554L85.5416 11.7806H86.9674V11.7793Z" fill="white"/>
  <path d="M94.4947 18.1466H93.0426V14.4991C93.0426 13.3751 92.6048 12.8131 91.7263 12.8131C91.2954 12.8131 90.9476 12.9671 90.6775 13.2765C90.41 13.5858 90.2743 13.9506 90.2743 14.368V18.1452H88.8222V13.598C88.8222 13.0387 88.8042 12.4321 88.7695 11.7756H90.0456L90.1135 12.7712H90.1537C90.3228 12.4618 90.5749 12.2065 90.9061 12.0025C91.2996 11.7648 91.7402 11.6445 92.2224 11.6445C92.832 11.6445 93.3391 11.8364 93.7423 12.2214C94.2439 12.6929 94.4947 13.3967 94.4947 14.3315V18.1466Z" fill="white"/>
  <path d="M98.4976 18.1478H97.0469V8.85742H98.4976V18.1478Z" fill="white"/>
  <path d="M107.048 14.9115C107.048 15.891 106.761 16.6934 106.187 17.323C105.586 17.9701 104.788 18.2929 103.794 18.2929C102.834 18.2929 102.071 17.9836 101.503 17.3621C100.934 16.7421 100.65 15.9599 100.65 15.0169C100.65 14.0307 100.943 13.2215 101.53 12.5933C102.118 11.9652 102.907 11.6504 103.901 11.6504C104.861 11.6504 105.63 11.9598 106.215 12.5798C106.769 13.1823 107.048 13.9605 107.048 14.9115ZM105.54 14.9575C105.54 14.3698 105.41 13.8659 105.151 13.4458C104.847 12.9378 104.412 12.6839 103.85 12.6839C103.265 12.6839 102.822 12.9378 102.518 13.4458C102.258 13.8659 102.129 14.3779 102.129 14.9831C102.129 15.5708 102.259 16.0747 102.518 16.4948C102.833 17.0028 103.271 17.2568 103.836 17.2568C104.39 17.2568 104.824 16.9987 105.137 16.4813C105.407 16.0531 105.54 15.5451 105.54 14.9575Z" fill="white"/>
  <path d="M114.075 18.1484H112.771L112.663 17.4148H112.623C112.177 17.9998 111.541 18.2929 110.715 18.2929C110.098 18.2929 109.6 18.0997 109.224 17.7161C108.883 17.3675 108.713 16.9339 108.713 16.4192C108.713 15.641 109.045 15.048 109.715 14.6373C110.383 14.2266 111.322 14.0253 112.532 14.0348V13.9159C112.532 13.077 112.08 12.6582 111.175 12.6582C110.531 12.6582 109.963 12.8162 109.472 13.1297L109.177 12.2002C109.784 11.8341 110.534 11.6504 111.418 11.6504C113.125 11.6504 113.981 12.5285 113.981 14.2847V16.6299C113.981 17.2662 114.013 17.7728 114.075 18.1484ZM112.568 15.9599V14.9777C110.966 14.9507 110.165 15.379 110.165 16.2611C110.165 16.5935 110.256 16.842 110.443 17.0082C110.631 17.1744 110.869 17.2568 111.153 17.2568C111.472 17.2568 111.769 17.1581 112.041 16.9623C112.314 16.765 112.482 16.5151 112.544 16.2084C112.559 16.1395 112.568 16.0558 112.568 15.9599Z" fill="white"/>
  <path d="M122.325 18.1478H121.036L120.968 17.1251H120.928C120.517 17.9033 119.816 18.2923 118.83 18.2923C118.043 18.2923 117.388 17.9911 116.869 17.3886C116.349 16.7861 116.09 16.0039 116.09 15.0433C116.09 14.0126 116.371 13.1777 116.936 12.5401C117.484 11.9457 118.154 11.6485 118.952 11.6485C119.829 11.6485 120.443 11.9362 120.792 12.513H120.82V8.85742H122.274V16.4321C122.274 17.0522 122.29 17.6236 122.325 18.1478ZM120.82 15.4621V14.4003C120.82 14.2166 120.806 14.068 120.78 13.9545C120.698 13.6141 120.522 13.3277 120.255 13.0967C119.985 12.8656 119.659 12.7495 119.284 12.7495C118.742 12.7495 118.318 12.9589 118.006 13.379C117.697 13.7991 117.541 14.3355 117.541 14.9907C117.541 15.6202 117.689 16.1308 117.987 16.524C118.301 16.9428 118.725 17.1522 119.256 17.1522C119.733 17.1522 120.114 16.9779 120.403 16.628C120.683 16.3051 120.82 15.9161 120.82 15.4621Z" fill="white"/>
  <path d="M134.745 14.9115C134.745 15.891 134.458 16.6934 133.884 17.323C133.283 17.9701 132.488 18.2929 131.492 18.2929C130.534 18.2929 129.771 17.9836 129.2 17.3621C128.632 16.7421 128.348 15.9599 128.348 15.0169C128.348 14.0307 128.64 13.2215 129.227 12.5933C129.815 11.9652 130.605 11.6504 131.601 11.6504C132.558 11.6504 133.33 11.9598 133.912 12.5798C134.466 13.1823 134.745 13.9605 134.745 14.9115ZM133.24 14.9575C133.24 14.3698 133.11 13.8659 132.851 13.4458C132.545 12.9378 132.112 12.6839 131.547 12.6839C130.965 12.6839 130.522 12.9378 130.215 13.4458C129.955 13.8659 129.826 14.3779 129.826 14.9831C129.826 15.5708 129.956 16.0747 130.215 16.4948C130.53 17.0028 130.968 17.2568 131.533 17.2568C132.087 17.2568 132.524 16.9987 132.837 16.4813C133.104 16.0531 133.24 15.5451 133.24 14.9575Z" fill="white"/>
  <path d="M142.554 18.1466H141.103V14.4991C141.103 13.3751 140.665 12.8131 139.786 12.8131C139.355 12.8131 139.007 12.9671 138.738 13.2765C138.469 13.5858 138.335 13.9506 138.335 14.368V18.1452H136.881V13.598C136.881 13.0387 136.865 12.4321 136.83 11.7756H138.105L138.173 12.7712H138.213C138.383 12.4618 138.635 12.2065 138.965 12.0025C139.36 11.7648 139.799 11.6445 140.283 11.6445C140.891 11.6445 141.398 11.8364 141.802 12.2214C142.304 12.6929 142.554 13.3967 142.554 14.3315V18.1466Z" fill="white"/>
  <path d="M152.326 12.8398H150.727V15.9335C150.727 16.7197 151.011 17.1128 151.573 17.1128C151.834 17.1128 152.05 17.0912 152.22 17.0466L152.258 18.1206C151.971 18.226 151.594 18.2787 151.13 18.2787C150.556 18.2787 150.11 18.1085 149.787 17.768C149.463 17.4276 149.302 16.8548 149.302 16.051V12.8398H148.348V11.7794H149.302V10.6121L150.725 10.1934V11.778H152.324V12.8398H152.326Z" fill="white"/>
  <path d="M160.012 18.1478H158.559V14.5273C158.559 13.3858 158.121 12.8143 157.244 12.8143C156.571 12.8143 156.111 13.1453 155.858 13.8072C155.815 13.9464 155.791 14.1166 155.791 14.3165V18.1464H154.34V8.85742H155.791V12.6954H155.818C156.275 11.997 156.931 11.6485 157.78 11.6485C158.382 11.6485 158.879 11.8403 159.274 12.2253C159.766 12.7049 160.012 13.4182 160.012 14.3611V18.1478Z" fill="white"/>
  <path d="M167.942 14.6634C167.942 14.9174 167.922 15.1308 167.888 15.3051H163.533C163.552 15.9346 163.76 16.4142 164.163 16.7466C164.532 17.0438 165.007 17.1924 165.589 17.1924C166.233 17.1924 166.821 17.0924 167.35 16.8911L167.577 17.8746C166.958 18.1367 166.229 18.2677 165.385 18.2677C164.374 18.2677 163.577 17.9773 163.001 17.3964C162.422 16.8154 162.135 16.036 162.135 15.0579C162.135 14.0974 162.402 13.2976 162.941 12.66C163.504 11.9791 164.264 11.6387 165.225 11.6387C166.164 11.6387 166.878 11.9791 167.36 12.66C167.749 13.2004 167.942 13.8691 167.942 14.6634ZM166.556 14.2973C166.567 13.8772 166.472 13.5151 166.275 13.2098C166.023 12.8167 165.639 12.6194 165.119 12.6194C164.645 12.6194 164.259 12.8113 163.964 13.1963C163.723 13.503 163.58 13.8691 163.533 14.2973H166.556Z" fill="white"/>
  </svg>
  