<svg width="187" height="55" viewBox="0 0 187 55" fill="none" xmlns="http://www.w3.org/2000/svg">
    <path d="M180.082 54.0371H7.12342C3.32006 54.0371 0.205078 50.9958 0.205078 47.2824V6.75444C0.205078 3.04106 3.32006 -0.00022759 7.12342 -0.00022759H180.082C183.885 -0.00022759 187 3.04106 187 6.75444V47.2824C187 50.9958 183.885 54.0371 180.082 54.0371Z" fill="black"/>
    <path d="M180.082 1.08221C183.285 1.08221 185.892 3.62703 185.892 6.75444V47.2824C185.892 50.4099 183.285 52.9547 180.082 52.9547H7.12342C3.92023 52.9547 1.31374 50.4099 1.31374 47.2824V6.75444C1.31374 3.62703 3.92023 1.08221 7.12342 1.08221H180.082ZM180.082 -0.00022759H7.12342C3.32006 -0.00022759 0.205078 3.04106 0.205078 6.75444V47.2824C0.205078 50.9958 3.32006 54.0371 7.12342 54.0371H180.082C183.885 54.0371 187 50.9958 187 47.2824V6.75444C187 3.04106 183.885 -0.00022759 180.082 -0.00022759Z" fill="#A6A6A6"/>
    <path d="M65.8138 13.8399C65.8138 14.9679 65.4679 15.8713 64.7865 16.5451C64.0029 17.3438 62.9825 17.7457 61.732 17.7457C60.5369 17.7457 59.5164 17.3371 58.6793 16.5316C57.8404 15.7143 57.4219 14.7112 57.4219 13.5106C57.4219 12.3099 57.8404 11.3069 58.6793 10.4963C59.5164 9.68405 60.5369 9.27539 61.732 9.27539C62.327 9.27539 62.8943 9.39529 63.4356 9.61819C63.9753 9.84278 64.4146 10.1467 64.7328 10.5216L64.0099 11.2342C63.4547 10.5942 62.6988 10.2785 61.732 10.2785C60.8603 10.2785 60.1045 10.5757 59.4628 11.1751C58.828 11.7763 58.5098 12.5548 58.5098 13.5106C58.5098 14.4664 58.828 15.2516 59.4628 15.8527C60.1045 16.4455 60.8603 16.7494 61.732 16.7494C62.6573 16.7494 63.4356 16.4455 64.0496 15.846C64.4544 15.4492 64.6844 14.902 64.7449 14.2029H61.732V13.2269H65.7516C65.8 13.438 65.8138 13.6423 65.8138 13.8399Z" fill="white" stroke="white" stroke-width="0.16" stroke-miterlimit="10"/>
    <path d="M72.1922 10.4556H68.4165V13.0223H71.8204V13.9984H68.4165V16.5652H72.1922V17.5598H67.3477V9.46094H72.1922V10.4556Z" fill="white" stroke="white" stroke-width="0.16" stroke-miterlimit="10"/>
    <path d="M76.6934 17.5598H75.6245V10.4556H73.3086V9.46094H79.011V10.4556H76.6934V17.5598Z" fill="white" stroke="white" stroke-width="0.16" stroke-miterlimit="10"/>
    <path d="M83.1367 17.5598V9.46094H84.2039V17.5598H83.1367Z" fill="white" stroke="white" stroke-width="0.16" stroke-miterlimit="10"/>
    <path d="M88.9336 17.5598H87.8734V10.4556H85.5488V9.46094H91.2582V10.4556H88.9336V17.5598Z" fill="white" stroke="white" stroke-width="0.16" stroke-miterlimit="10"/>
    <path d="M102.057 16.5181C101.239 17.3371 100.225 17.7457 99.0164 17.7457C97.8005 17.7457 96.787 17.3371 95.9689 16.5181C95.1525 15.7008 94.7461 14.6977 94.7461 13.5106C94.7461 12.3234 95.1525 11.3204 95.9689 10.5031C96.787 9.68405 97.8005 9.27539 99.0164 9.27539C100.219 9.27539 101.232 9.68405 102.05 10.5098C102.873 11.3339 103.28 12.3302 103.28 13.5106C103.28 14.6977 102.873 15.7008 102.057 16.5181ZM96.7593 15.8392C97.3751 16.4455 98.124 16.7494 99.0164 16.7494C99.902 16.7494 100.658 16.4455 101.267 15.8392C101.881 15.233 102.192 14.4545 102.192 13.5106C102.192 12.5666 101.881 11.7881 101.267 11.1819C100.658 10.5757 99.902 10.2717 99.0164 10.2717C98.124 10.2717 97.3751 10.5757 96.7593 11.1819C96.1453 11.7881 95.834 12.5666 95.834 13.5106C95.834 14.4545 96.1453 15.233 96.7593 15.8392Z" fill="white" stroke="white" stroke-width="0.16" stroke-miterlimit="10"/>
    <path d="M104.777 17.5598V9.46094H106.075L110.108 15.7597H110.155L110.108 14.2027V9.46094H111.175V17.5598H110.061L105.838 10.9503H105.791L105.838 12.514V17.5598H104.777Z" fill="white" stroke="white" stroke-width="0.16" stroke-miterlimit="10"/>
    <path d="M94.4807 29.3849C91.2308 29.3849 88.5759 31.7997 88.5759 35.1314C88.5759 38.4362 91.2308 40.8763 94.4807 40.8763C97.7375 40.8763 100.392 38.4362 100.392 35.1314C100.392 31.7997 97.7375 29.3849 94.4807 29.3849ZM94.4807 38.6135C92.6975 38.6135 91.1634 37.1764 91.1634 35.1314C91.1634 33.0594 92.6975 31.6477 94.4807 31.6477C96.2639 31.6477 97.805 33.0594 97.805 35.1314C97.805 37.1764 96.2639 38.6135 94.4807 38.6135ZM81.597 29.3849C78.3402 29.3849 75.6922 31.7997 75.6922 35.1314C75.6922 38.4362 78.3402 40.8763 81.597 40.8763C84.8521 40.8763 87.5018 38.4362 87.5018 35.1314C87.5018 31.7997 84.8521 29.3849 81.597 29.3849ZM81.597 38.6135C79.8121 38.6135 78.2728 37.1764 78.2728 35.1314C78.2728 33.0594 79.8121 31.6477 81.597 31.6477C83.3802 31.6477 84.9144 33.0594 84.9144 35.1314C84.9144 37.1764 83.3802 38.6135 81.597 38.6135ZM66.266 31.1462V33.588H72.2383C72.0636 34.9524 71.5966 35.9555 70.8805 36.6546C70.0088 37.4989 68.6511 38.4362 66.266 38.4362C62.5906 38.4362 59.7126 35.5401 59.7126 31.9517C59.7126 28.3633 62.5906 25.4672 66.266 25.4672C68.2533 25.4672 69.6992 26.2254 70.7664 27.2082L72.5288 25.4875C71.0362 24.096 69.0506 23.0271 66.266 23.0271C61.226 23.0271 56.9902 27.0309 56.9902 31.9517C56.9902 36.8725 61.226 40.8763 66.266 40.8763C68.9901 40.8763 71.0362 40.0049 72.6447 38.3703C74.293 36.761 74.8067 34.4982 74.8067 32.671C74.8067 32.1037 74.7583 31.5819 74.6718 31.1462H66.266ZM128.957 33.0392C128.471 31.7541 126.971 29.3849 123.917 29.3849C120.89 29.3849 118.37 31.7136 118.37 35.1314C118.37 38.35 120.864 40.8763 124.207 40.8763C126.91 40.8763 128.471 39.267 129.112 38.3298L127.106 37.0244C126.437 37.9802 125.525 38.6135 124.207 38.6135C122.898 38.6135 121.959 38.0275 121.357 36.8725L129.228 33.6927L128.957 33.0392ZM120.931 34.9524C120.864 32.7369 122.694 31.6021 124.005 31.6021C125.032 31.6021 125.904 32.1037 126.194 32.8213L120.931 34.9524ZM114.534 40.5267H117.121V23.6401H114.534V40.5267ZM110.296 30.6649H110.21C109.628 29.9928 108.52 29.3849 107.115 29.3849C104.168 29.3849 101.473 31.9111 101.473 35.15C101.473 38.3703 104.168 40.8763 107.115 40.8763C108.52 40.8763 109.628 40.2633 110.21 39.5709H110.296V40.395C110.296 42.592 109.094 43.7723 107.155 43.7723C105.574 43.7723 104.594 42.6578 104.189 41.7206L101.939 42.6376C102.587 44.1607 104.305 46.0352 107.155 46.0352C110.189 46.0352 112.749 44.2925 112.749 40.0522V29.7345H110.296V30.6649ZM107.337 38.6135C105.554 38.6135 104.061 37.1561 104.061 35.15C104.061 33.1253 105.554 31.6477 107.337 31.6477C109.094 31.6477 110.479 33.1253 110.479 35.15C110.479 37.1561 109.094 38.6135 107.337 38.6135ZM141.071 23.6401H134.882V40.5267H137.463V34.1284H141.071C143.936 34.1284 146.747 32.1037 146.747 28.8834C146.747 25.6648 143.93 23.6401 141.071 23.6401ZM141.138 31.7794H137.463V25.989H141.138C143.065 25.989 144.165 27.551 144.165 28.8834C144.165 30.1904 143.065 31.7794 141.138 31.7794ZM157.09 29.3528C155.225 29.3528 153.287 30.1566 152.489 31.9382L154.779 32.8754C155.272 31.9382 156.178 31.6342 157.137 31.6342C158.475 31.6342 159.833 32.4194 159.854 33.8058V33.9831C159.387 33.7197 158.387 33.3296 157.157 33.3296C154.691 33.3296 152.178 34.6552 152.178 37.1291C152.178 39.3919 154.198 40.8493 156.469 40.8493C158.206 40.8493 159.164 40.0843 159.766 39.1944H159.854V40.4997H162.346V34.022C162.346 31.028 160.056 29.3528 157.09 29.3528ZM156.779 38.6067C155.935 38.6067 154.758 38.1981 154.758 37.1764C154.758 35.8694 156.225 35.3678 157.495 35.3678C158.631 35.3678 159.164 35.6127 159.854 35.9352C159.651 37.4989 158.273 38.6067 156.779 38.6067ZM171.426 29.7226L168.46 37.043H168.372L165.305 29.7226H162.523L167.13 39.9526L164.501 45.6451H167.198L174.298 29.7226H171.426ZM148.165 40.5267H150.753V23.6401H148.165V40.5267Z" fill="white"/>
    <path d="M14.6436 10.1846C14.2372 10.6 14.002 11.2468 14.002 12.0843V41.9602C14.002 42.7978 14.2372 43.4446 14.6436 43.86L14.7439 43.9512L31.891 27.2165V26.8213L14.7439 10.0866L14.6436 10.1846Z" fill="url(#paint0_linear_3669_10662)"/>
    <path d="M37.6019 32.7988L31.8926 27.2178V26.8226L37.6089 21.2416L37.7368 21.3142L44.5064 25.0749C46.4384 26.1421 46.4384 27.8983 44.5064 28.9723L37.7368 32.7262L37.6019 32.7988Z" fill="url(#paint1_linear_3669_10662)"/>
    <path d="M37.7343 32.726L31.89 27.02L14.6426 43.8611C15.2843 44.5197 16.3307 44.599 17.5206 43.9404L37.7343 32.726Z" fill="url(#paint2_linear_3669_10662)"/>
    <path d="M37.7343 21.3116L17.5206 10.0971C16.3307 9.44531 15.2843 9.52468 14.6426 10.1833L31.89 27.0176L37.7343 21.3116Z" fill="url(#paint3_linear_3669_10662)"/>
    <defs>
    <linearGradient id="paint0_linear_3669_10662" x1="30.3686" y1="42.2714" x2="7.70318" y2="19.0567" gradientUnits="userSpaceOnUse">
    <stop stop-color="#00A0FF"/>
    <stop offset="0.0066" stop-color="#00A1FF"/>
    <stop offset="0.2601" stop-color="#00BEFF"/>
    <stop offset="0.5122" stop-color="#00D2FF"/>
    <stop offset="0.7604" stop-color="#00DFFF"/>
    <stop offset="1" stop-color="#00E3FF"/>
    </linearGradient>
    <linearGradient id="paint1_linear_3669_10662" x1="47.0222" y1="27.0183" x2="13.5417" y2="27.0183" gradientUnits="userSpaceOnUse">
    <stop stop-color="#FFE000"/>
    <stop offset="0.4087" stop-color="#FFBD00"/>
    <stop offset="0.7754" stop-color="#FFA500"/>
    <stop offset="1" stop-color="#FF9C00"/>
    </linearGradient>
    <linearGradient id="paint2_linear_3669_10662" x1="34.5563" y1="23.9181" x2="3.82019" y2="-7.56279" gradientUnits="userSpaceOnUse">
    <stop stop-color="#FF3A44"/>
    <stop offset="1" stop-color="#C31162"/>
    </linearGradient>
    <linearGradient id="paint3_linear_3669_10662" x1="10.301" y1="53.7982" x2="24.0261" y2="39.7407" gradientUnits="userSpaceOnUse">
    <stop stop-color="#32A071"/>
    <stop offset="0.0685" stop-color="#2DA771"/>
    <stop offset="0.4762" stop-color="#15CF74"/>
    <stop offset="0.8009" stop-color="#06E775"/>
    <stop offset="1" stop-color="#00F076"/>
    </linearGradient>
    </defs>
    </svg>
    